<svg width="20" height="20" viewBox="0 0 20 20" fill="none" xmlns="http://www.w3.org/2000/svg">
<path fill-rule="evenodd" clip-rule="evenodd" d="M18.8944 12.3341C18.6983 12.1376 18.4098 12.0655 18.1444 12.1466C15.2305 13.0275 12.0684 12.2338 9.91589 10.0813C7.7634 7.92881 6.96973 4.76665 7.85063 1.85281C7.93239 1.58725 7.86064 1.29825 7.66417 1.10177C7.46769 0.905293 7.17868 0.833543 6.91313 0.915313C4.93596 1.52098 3.20019 2.73481 1.95281 4.38406C-0.272197 7.33813 -0.634332 11.2968 1.01776 14.6055C2.66985 17.9143 6.05173 20.0035 9.75 20C11.8653 20.0065 13.9244 19.3188 15.6112 18.0425C17.2605 16.7951 18.4743 15.0593 19.08 13.0822C19.1608 12.8177 19.0895 12.5301 18.8944 12.3341ZM14.7094 16.8444C11.4249 19.3182 6.82017 18.9958 3.91251 16.0884C1.00484 13.1809 0.68204 8.57623 3.15562 5.29156C3.93507 4.26224 4.94275 3.42786 6.09937 2.85406C6.03349 3.31646 6.00028 3.78293 6 4.25C6.00568 9.63242 10.3676 13.9943 15.75 14C16.218 13.9999 16.6854 13.9666 17.1488 13.9006C16.5744 15.0574 15.7394 16.0651 14.7094 16.8444Z" fill="#171412"/>
</svg>
