<svg width="21" height="18" viewBox="0 0 21 18" fill="none" xmlns="http://www.w3.org/2000/svg">
<path d="M20.5 2.80999C19.7483 3.13609 18.9534 3.35165 18.14 3.44999C18.9982 2.93731 19.6413 2.13077 19.95 1.17999C19.1436 1.66005 18.2608 1.99829 17.34 2.17999C16.7245 1.51256 15.905 1.06829 15.0098 0.916842C14.1147 0.765397 13.1945 0.915349 12.3938 1.34318C11.593 1.77101 10.9569 2.45252 10.5852 3.28083C10.2135 4.10913 10.1273 5.03738 10.34 5.91999C8.70943 5.83752 7.11444 5.41294 5.65865 4.67385C4.20287 3.93476 2.91885 2.89768 1.89 1.62999C1.52914 2.26016 1.33952 2.97381 1.34 3.69999C1.33872 4.37437 1.50422 5.03861 1.82176 5.63355C2.13929 6.2285 2.59902 6.7357 3.16 7.10999C2.50798 7.09225 1.86989 6.91729 1.3 6.59999V6.64999C1.30489 7.59488 1.63599 8.50908 2.23731 9.23796C2.83864 9.96683 3.67326 10.4656 4.6 10.65C4.24326 10.7586 3.87287 10.8158 3.5 10.82C3.24189 10.817 2.98442 10.7936 2.73 10.75C2.99391 11.5628 3.50462 12.2731 4.19107 12.7822C4.87753 13.2912 5.70558 13.5735 6.56 13.59C5.1172 14.7253 3.33588 15.3448 1.5 15.35C1.16574 15.3511 0.831736 15.331 0.5 15.29C2.37443 16.5002 4.55881 17.1427 6.79 17.14C8.32969 17.156 9.85714 16.865 11.2831 16.2841C12.7091 15.7031 14.005 14.8439 15.0952 13.7565C16.1854 12.6691 17.048 11.3754 17.6326 9.9509C18.2172 8.52641 18.512 6.99972 18.5 5.45999C18.5 5.28999 18.5 5.10999 18.5 4.92999C19.2847 4.3448 19.9615 3.62742 20.5 2.80999Z" fill="#4EA9DC"/>
</svg>
